<svg width="207" height="80" viewBox="0 0 207 80" fill="none" xmlns="http://www.w3.org/2000/svg">
<path d="M83.5069 28.0684C83.5069 27.4893 83.1985 27.2188 82.6583 27.2188H81.1153V23.0478H85.7825C87.6343 23.0478 88.4056 23.8591 88.4056 25.674V30.4625H89.7171C90.4115 30.4625 91.1828 30.3468 91.6071 29.6516L95.7732 23.0478H101.173L96.0429 30.926C95.2712 32.1621 94.5772 32.4704 94.5772 32.4704V32.5478C94.5772 32.5478 95.4644 32.8569 96.1975 34.0923L98.4345 37.8768C98.7815 38.456 99.1675 38.6107 100.055 38.6107H101.289V42.7431H97.6632C96.0046 42.7431 95.3489 42.4726 94.5776 41.0435L91.4533 35.3284C91.0677 34.6718 90.4506 34.5945 89.7561 34.5945H88.4064V42.7431H83.5076L83.5069 28.0684Z" fill="#212A33"/>
<path d="M114.382 30.3855H114.999V30.115C114.999 27.4115 113.881 26.3688 111.373 26.3688C110.486 26.3688 108.75 26.601 108.75 27.6819V28.7246H104.16V26.6393C104.16 23.0087 109.367 22.5839 111.258 22.5839C117.969 22.5839 119.898 25.9436 119.898 30.4234V37.7611C119.898 38.3016 120.206 38.6107 120.746 38.6107H122.289V42.7431H117.854C116.041 42.7431 115.385 41.7391 115.385 40.5803V39.7303H115.308C115.346 39.7303 113.649 43.2065 109.213 43.2065C105.703 43.2065 102.695 41.0051 102.695 37.3363C102.695 30.7325 111.18 30.3855 114.382 30.3855ZM110.525 39.4607C113.225 39.4607 115.038 36.6801 115.038 34.2861V33.7456H114.15C111.605 33.7456 107.554 34.1317 107.554 36.8349C107.554 38.148 108.557 39.4607 110.525 39.4607Z" fill="#212A33"/>
<path d="M125.651 37.1824C126.114 37.6072 128.081 39.3837 130.742 39.3837C132.748 39.3837 134.137 38.4185 134.137 36.6802C134.137 35.097 133.095 34.2861 130.896 34.2861H128.351V31.0808H130.241C132.323 31.0808 133.519 30.1925 133.519 28.4933C133.519 26.8323 132.285 26.1375 130.703 26.1375C129.508 26.1375 127.965 26.5623 127.965 27.8367V28.648H124.03V26.6784C124.03 23.8595 127.386 22.5847 131.051 22.5847C135.564 22.5847 138.379 24.5157 138.379 27.9915C138.379 30.4242 136.991 31.8534 135.602 32.3556V32.4329C137.415 32.9347 138.958 34.4022 138.958 37.0671C138.958 41.0447 135.409 43.2074 131.089 43.2074C126.923 43.2074 124.609 41.2764 123.49 40.3107L125.651 37.1824Z" fill="#212A33"/>
<path d="M152.344 30.3855H152.961V30.115C152.961 27.4115 151.843 26.3688 149.335 26.3688C148.448 26.3688 146.712 26.601 146.712 27.6819V28.7246H142.122V26.6393C142.122 23.0087 147.329 22.5839 149.219 22.5839C155.931 22.5839 157.86 25.9436 157.86 30.4234V37.7611C157.86 38.3016 158.168 38.6107 158.708 38.6107H160.251V42.7431H155.815C154.003 42.7431 153.347 41.7391 153.347 40.5803V39.7303H153.27C153.308 39.7303 151.611 43.2065 147.175 43.2065C143.665 43.2065 140.657 41.0051 140.657 37.3363C140.657 30.7325 149.142 30.3855 152.344 30.3855ZM148.486 39.4607C151.186 39.4607 152.999 36.6801 152.999 34.2861V33.7456H152.112C149.566 33.7456 145.516 34.1317 145.516 36.8349C145.516 38.148 146.519 39.4607 148.486 39.4607Z" fill="#212A33"/>
<path d="M162.975 28.0685C162.975 27.4893 162.667 27.2188 162.127 27.2188H160.584V23.0478H165.251C167.103 23.0478 167.874 23.8591 167.874 25.674V30.7329H176.244V23.0478H181.143V37.7615C181.143 38.302 181.452 38.6111 181.992 38.6111H183.534V42.7435H178.867C177.015 42.7435 176.244 41.9709 176.244 40.1173V34.7492H167.874V42.7435H162.975L162.975 28.0685Z" fill="#212A33"/>
<path d="M186.665 28.0685C186.665 27.4893 186.356 27.2188 185.816 27.2188H184.273V23.0478H188.979C190.715 23.0478 191.525 23.8591 191.563 25.2879V29.8446H195.151C200.011 29.8446 202.441 32.5482 202.441 36.2941C202.441 40.4647 199.239 42.7435 195.151 42.7435H188.786C187.282 42.7435 186.665 42.1256 186.665 40.6578V28.0685ZM192.257 39.3837H194.417C196.385 39.3837 197.58 38.1093 197.58 36.2941C197.58 34.4018 196.423 33.2431 194.417 33.2431H191.563V38.6498C191.563 39.1133 191.833 39.3837 192.257 39.3837Z" fill="#212A33"/>
<path d="M88.5214 56.7512H85.8601C85.3198 56.7512 85.0115 57.0599 85.0115 57.6008V58.7204H81V55.1672C81 53.3136 81.8099 52.5797 83.6231 52.5797H98.2806C100.132 52.5797 100.904 53.3136 100.904 55.1672V58.7204H96.8921V57.6008C96.8921 57.0599 96.5834 56.7512 96.0435 56.7512H93.4205V72.2758H88.5218L88.5214 56.7512Z" fill="#212A33"/>
<path d="M104.58 57.6008C104.58 57.0216 104.272 56.7512 103.732 56.7512H102.189V52.5802H106.586C108.399 52.5802 109.055 53.3915 109.055 54.4724V55.245H109.132C109.132 55.245 110.791 52.1167 115.381 52.1167C120.704 52.1167 124.098 56.326 124.098 62.428C124.098 68.6843 120.28 72.7397 115.111 72.7397C111.215 72.7397 109.48 70.1518 109.48 70.1518H109.402C109.402 70.1518 109.48 70.8474 109.48 71.8514V80H104.581L104.58 57.6008ZM114.224 68.607C116.924 68.607 119.161 66.4056 119.161 62.5054C119.161 58.7595 117.155 56.326 114.301 56.326C111.717 56.326 109.325 58.18 109.325 62.5441C109.325 65.5951 110.983 68.607 114.224 68.607Z" fill="#212A33"/>
<path d="M135.818 52.1166C141.449 52.1166 144.535 56.249 144.535 61.4623C144.535 62.0028 144.458 62.621 144.381 63.1615H130.803C131.15 66.7146 133.773 68.5682 136.744 68.5682C138.749 68.5682 140.794 67.6799 142.375 66.4055L144.304 69.92C142.298 71.6966 139.212 72.7393 136.396 72.7393C129.877 72.7393 125.789 68.0278 125.789 62.4275C125.789 56.3646 129.917 52.1166 135.818 52.1166ZM139.636 60.1879C139.598 57.446 137.901 55.8238 135.702 55.8238C133.195 55.8238 131.42 57.5617 130.957 60.1879H139.636Z" fill="#212A33"/>
<path d="M148.081 56.7512H145.69V52.5802H157.184C161.157 52.5802 163.78 54.3567 163.78 57.6778C163.78 59.8792 162.584 61.308 161.234 61.9258V62.0028C163.549 62.6207 164.667 64.5907 164.667 66.5599C164.667 70.4605 161.505 72.2758 157.338 72.2758H150.164C148.698 72.2758 148.081 71.658 148.081 70.1901V56.7512ZM156.143 60.6514C157.917 60.6514 158.881 59.6474 158.881 58.2183C158.881 56.7512 157.917 55.9012 156.027 55.9012H152.98V60.6514H156.143ZM153.635 68.9544H156.49C158.65 68.9544 159.691 67.9117 159.691 66.2895C159.691 64.6673 158.573 63.702 156.49 63.702H152.98V68.2588C152.98 68.7223 153.211 68.9544 153.635 68.9544Z" fill="#212A33"/>
<path d="M176.364 52.1166C181.995 52.1166 185.081 56.249 185.081 61.4623C185.081 62.0028 185.004 62.621 184.927 63.1615H171.349C171.696 66.7146 174.319 68.5682 177.289 68.5682C179.295 68.5682 181.34 67.6799 182.921 66.4055L184.85 69.92C182.844 71.6966 179.758 72.7393 176.942 72.7393C170.423 72.7393 166.335 68.0278 166.335 62.4275C166.335 56.3646 170.463 52.1166 176.364 52.1166ZM180.182 60.1879C180.144 57.446 178.446 55.8238 176.248 55.8238C173.741 55.8238 171.966 57.5617 171.503 60.1879H180.182Z" fill="#212A33"/>
<path d="M186.363 68.0661C189.256 67.9504 190.529 63.4703 190.529 58.257V56.7512H188.137V52.5802H201.985C203.797 52.5802 204.569 53.3915 204.569 55.2064V67.2939C204.569 67.8344 204.878 68.1435 205.418 68.1435H206.961V72.2758H202.293C200.481 72.2758 199.709 71.5032 199.709 69.6496V57.6008C199.709 57.0599 199.4 56.7512 198.86 56.7512H195.157V58.2956C195.157 64.2816 193.808 72.4685 186.363 72.3915V68.0661Z" fill="#212A33"/>
<path opacity="0.7" d="M63.8534 51.3947H55.5492L46.7171 40.9952C46.9103 40.7168 47.1039 40.4232 47.2975 40.1153L65.4944 12.1709H40.2033C39.6403 12.1709 39.1164 12.4601 38.8156 12.9363L28.8756 28.6931V24.0466C28.8756 17.4879 23.5649 12.1709 17.014 12.1709H0V31.5538C0 32.4613 0.734631 33.1968 1.64099 33.1968H6.02698V70.6803C6.02698 71.5878 6.76163 72.3233 7.66799 72.3233H27.2342C28.1405 72.3233 28.8752 71.5878 28.8752 70.6803V54.8852L34.5659 65.2959C37.7296 71.1478 41.6522 72.3233 46.9557 72.3233H63.853C64.7594 72.3233 65.494 71.5878 65.494 70.6803V53.0381C65.494 52.1306 64.7594 51.3951 63.853 51.3951L63.8534 51.3947Z" fill="url(#paint0_linear_123_1420)"/>
<mask id="mask0_123_1420" style="mask-type:luminance" maskUnits="userSpaceOnUse" x="0" y="0" width="66" height="73">
<path d="M65.494 0.000401699H0V31.5534C0 32.4609 0.734655 33.1964 1.64101 33.1964H6.02698V70.6799C6.02698 71.5873 6.76163 72.3229 7.66799 72.3229H27.2342C28.1405 72.3229 28.8752 71.5873 28.8752 70.6799V54.8848L34.5659 65.2955C37.7296 71.1474 41.6522 72.3229 46.9557 72.3229H63.853C64.7594 72.3229 65.494 71.5873 65.494 70.6799V0V0.000401699Z" fill="white"/>
</mask>
<g mask="url(#mask0_123_1420)">
<path d="M3.85515 73.8227C3.90256 73.8701 5.13879 73.9176 5.08062 73.5869L5.07544 52.6376C5.12644 52.2479 5.32086 52.1538 5.68739 52.1179C6.7531 52.0142 8.95586 52.0253 10.0291 52.1231C10.2869 52.1466 10.4877 52.1821 10.5227 52.4721L10.6443 62.4587C10.663 62.9405 10.1423 62.7587 9.79128 62.7838L9.78729 73.4968C9.77694 74.0412 10.5303 73.7596 10.9227 73.8223V64.0578C10.9227 64.0478 11.0542 63.9162 11.0642 63.9162H42.4425C42.4524 63.9162 42.5839 64.0478 42.5839 64.0578V73.7277C42.5839 73.7892 43.809 73.7892 43.809 73.7277V52.4537C43.809 52.3975 44.1843 52.0576 44.3221 52.1186C45.6859 52.2307 47.2336 51.9874 48.573 52.1179C48.8655 52.1466 49.0208 52.1821 49.1603 52.4733L49.1794 73.4924C49.2583 73.9212 50.0603 73.6611 50.4049 73.7281V62.4072H52.4778V64.5771C52.4778 64.6385 53.7029 64.6385 53.7029 64.5771V62.4072H56.0586V64.5771H57.3777V62.4072H59.545V64.4355H60.8641V62.4072C61.6047 62.4388 62.2975 62.278 63.0314 62.4072V64.3414L64.3505 64.483V62.4077H67.0361C67.0512 62.4077 67.0361 75.7097 67.0361 75.7097H-7.8291V62.5018C-7.8291 62.3725 -5.94468 62.3725 -5.94468 62.5018V64.5301C-5.94468 64.7423 -4.62559 64.7423 -4.62559 64.5301V62.5489C-4.62559 62.5389 -4.4941 62.4072 -4.48414 62.4072H-2.4583V64.5301C-2.4583 64.698 -1.04477 64.7443 -1.04477 64.6717V62.6434C-1.04477 62.6306 -0.963094 62.4077 -0.950346 62.4077H0.981492C0.991451 62.4077 1.12292 62.5393 1.12292 62.5492V64.5305C1.12292 64.7435 2.53645 64.7435 2.53645 64.5305V62.4077C2.53645 62.3398 3.85554 62.3789 3.85554 62.5492V73.823L3.85515 73.8227ZM23.2663 73.8227H24.9153C24.9253 73.8227 25.0567 73.691 25.0567 73.6811V67.6433C25.0567 67.4706 26.7193 66.3601 26.9742 66.3884C27.1977 66.4136 28.675 67.4654 28.7774 67.6919C28.9682 69.4965 28.691 71.4206 28.8216 73.2132C28.828 73.3013 28.8894 73.8227 28.92 73.8227H30.4276V67.0773C30.4276 66.9456 29.0407 65.7375 28.8176 65.5759C28.2718 65.1814 27.2208 64.4603 26.5635 64.6226C25.8655 64.7953 23.2978 66.6824 23.1763 67.3641C23.1982 69.5172 23.0926 71.6791 23.2663 73.8227ZM15.8222 73.8227V69.1526C15.8222 69.1091 15.3541 68.5607 15.2525 68.4969C14.9107 68.2819 14.5665 68.2819 14.2251 68.4969C14.1231 68.5611 13.6554 69.1091 13.6554 69.1526V73.8227H15.8227H15.8222ZM18.4609 69.2472V73.6811C18.4609 73.691 18.5923 73.8227 18.6023 73.8227H20.5811C20.6473 73.8227 20.7082 73.6655 20.7226 73.5869C20.8349 72.9703 20.6361 72.0664 20.7265 71.4127C20.4532 70.5012 21.017 68.9795 20.0034 68.4578C19.6178 68.2591 19.2445 68.3038 18.9278 68.583C18.8441 68.6568 18.4772 69.1714 18.4605 69.2476L18.4609 69.2472ZM33.0662 69.3413V73.6811C33.0662 73.691 33.1976 73.8227 33.2076 73.8227H34.998C35.0331 73.8227 35.3279 73.6089 35.3279 73.5869V69.5304C35.3279 69.3297 35.1004 68.8431 34.9498 68.6823C34.2741 67.9612 33.2176 68.4821 33.0662 69.3413ZM37.8721 73.7285H39.9923C40.3178 73.7285 40.0421 72.0553 40.0354 71.7988C40.0158 71.0297 40.1282 70.0704 40.0417 69.3397C39.9505 68.5667 38.9214 67.9748 38.2772 68.5687C38.2509 68.5926 37.8721 69.1179 37.8721 69.1534V73.7289V73.7285Z" fill="url(#paint1_linear_123_1420)"/>
<path d="M37.7402 30.275C39.5761 31.8179 41.929 35.3791 42.2764 37.7611C42.3533 38.2873 42.3979 38.7288 41.8629 38.2227C41.1928 37.5892 41.3258 36.541 39.9175 36.8605C39.1223 37.0408 38.5709 38.4253 38.2546 38.5019C38.1482 38.5274 36.7319 38.2669 36.5442 38.2147C36.2813 38.1413 36.2243 37.7049 36.065 37.4708C35.1634 36.1433 34.0419 36.0755 33.177 37.4708C33.0383 37.6945 33.0124 38.1094 32.7375 38.1628C32.5463 38.1999 30.6125 38.1931 30.4866 38.1493C30.4073 38.1217 30.0364 37.3966 29.9013 37.2255C28.9508 36.0229 27.8281 36.3037 27.1265 37.5454C27.0556 37.671 26.9512 38.0392 26.9289 38.0551C26.85 38.1114 26.4213 38.0435 26.2408 38.0739C25.7946 38.1488 25.2524 38.4245 24.7747 38.2075C24.6241 38.1393 23.9612 37.2187 23.6373 36.9877C22.5756 36.2315 21.833 36.9315 21.1449 37.7827C20.9852 37.9801 20.6226 38.7236 20.568 38.7348C20.3899 38.7711 19.2171 38.3515 19.0569 38.2247C18.6593 37.9095 18.3645 37.2155 17.6593 37.2159C17.147 37.2159 16.9765 37.5968 17.1836 36.5526C18.1334 31.7617 25.6735 25.903 30.5595 26.6608C32.7045 26.9935 36.0726 28.8734 37.7399 30.2747L37.7402 30.275Z" fill="url(#paint2_linear_123_1420)"/>
<path d="M29.1088 51.5107C29.1283 51.4206 29.9717 50.1538 30.1064 49.9623C31.257 48.3273 33.0271 46.7031 34.6764 45.5755C34.9601 45.3816 36.0545 44.6441 36.3123 44.6696C36.4649 44.6848 37.8126 45.5124 38.0529 45.6696C39.799 46.8116 41.4894 48.4633 42.7153 50.1526C42.9384 50.4601 43.3452 50.8482 43.1735 51.2483C43.087 51.4501 42.5835 51.8239 42.5835 51.9826V62.5488C42.5835 62.5588 42.452 62.6904 42.442 62.6904H40.0393V52.7373C40.0393 52.6942 39.7536 52.048 39.699 51.9455C39.125 50.8681 38.4668 50.6352 37.6836 51.6994C37.5879 51.829 37.2122 52.5434 37.2122 52.6427V62.69H34.8565V52.7369C34.8565 52.5705 34.341 51.687 34.1944 51.5127C33.6772 50.8965 33.3537 50.8654 32.7828 51.4425C32.6103 51.6168 32.0295 52.5574 32.0295 52.7369V62.69H29.1084V51.5103L29.1088 51.5107Z" fill="url(#paint3_linear_123_1420)"/>
<path d="M10.4039 19.1986C10.6609 19.2788 10.5119 19.9697 10.4262 20.1643C10.2434 20.5792 9.69718 20.5652 9.69718 20.9441V25.7554C9.69718 25.7653 9.82864 25.897 9.8386 25.897H11.3936C11.3812 26.2755 11.4477 26.6321 11.3211 27.0034C11.1426 27.5264 10.2661 28.2623 10.0685 28.7685L10.1685 50.9918H5.64544C5.68728 45.4738 5.59128 39.9497 5.64148 34.4309C5.65781 32.6451 5.95501 30.6516 5.74147 28.867C5.66657 28.2416 4.42596 27.7067 4.32397 26.7956C4.31242 26.6919 4.28134 25.897 4.32636 25.897H5.92832V20.708C5.92832 20.6952 5.7821 20.692 5.69405 20.6167C5.18171 20.1775 5.1084 19.8867 5.17453 19.1983H10.4043L10.4039 19.1986ZM8.47249 25.897V22.1703C8.47249 21.9617 8.01952 21.6366 7.77252 21.6521C7.56615 21.6653 7.1534 21.9936 7.1534 22.1703V25.897H8.47249Z" fill="url(#paint4_linear_123_1420)"/>
<path d="M48.7085 50.8977H44.2798C44.2452 46.3226 44.3241 41.7427 44.2838 37.1668C44.2818 36.9435 44.1838 36.7376 44.1815 36.5147C44.1552 33.7959 44.2488 31.0541 44.1384 28.3501C43.6615 28.0497 42.9297 27.2568 42.864 26.7015C42.852 26.6002 42.8217 25.8029 42.8663 25.8029H44.5623V20.7555C44.5623 20.6785 43.8775 20.4392 43.7564 20.0531C43.6898 19.8405 43.6257 19.1967 43.8687 19.1173C44.1261 19.0332 47.8662 19.0021 48.6658 19.0998C49.1132 19.1544 49.0694 19.673 48.9491 20.0531C48.8487 20.3702 48.3917 20.5441 48.3332 20.8516L48.3312 25.5671C48.42 26.049 49.2702 25.6493 49.5626 25.844C49.967 26.1136 49.2909 27.9883 48.9479 28.2595C48.8407 28.3445 48.6228 28.3537 48.563 28.4402C48.4742 28.5691 48.5084 30.847 48.516 31.2316C48.5495 32.9076 48.6905 34.642 48.7124 36.318C48.7766 41.1759 48.6563 46.0406 48.7085 50.8977ZM47.2005 25.8029V22.2653C47.2005 21.9278 46.7384 21.5935 46.3977 21.6027C46.1484 21.6095 45.5985 21.9242 45.5985 22.1707V25.8029H47.2005Z" fill="url(#paint5_linear_123_1420)"/>
<path d="M17.8014 53.2091C17.7261 52.5103 17.1186 51.0273 16.2548 51.0887C15.7505 51.1246 15.0309 52.4253 14.972 52.9231L14.9676 62.6832C14.1385 62.7171 13.3035 62.6637 12.4736 62.6856C12.2728 62.6908 11.927 62.8699 11.8139 62.6944L11.7752 53.3934C11.8123 52.8725 11.3888 52.1872 11.5314 51.7421C11.6673 51.3189 12.9326 49.5877 13.2808 49.1546C14.2696 47.9248 15.6226 46.6149 16.9222 45.7246C17.2269 45.516 18.1891 44.8248 18.505 44.8563C18.6919 44.875 20.644 46.4079 20.9312 46.6572C22.2954 47.8411 23.0173 48.9276 23.9993 50.3999C24.126 50.5897 24.6288 51.1354 24.6619 51.2459C24.781 51.6443 24.7722 53.6415 24.7786 53.8649C24.8639 56.801 24.7065 59.7535 24.7746 62.69H22.7957V53.3029C22.7957 53.2175 22.7065 52.6212 22.6798 52.4756C22.5735 51.8936 21.7045 50.6978 21.0472 51.0811C20.5492 51.3715 19.9647 52.4353 19.9647 53.0161C19.9647 55.6419 20.054 62.69 20.054 62.69L17.8014 62.7355V53.2091Z" fill="url(#paint6_linear_123_1420)"/>
<path d="M54.6449 22.7837C54.6823 22.8212 54.6604 23.7311 54.6257 23.8495C54.5381 24.1487 54.0245 24.2053 53.9867 24.5304C54.1098 25.9596 53.8178 27.6688 53.9803 29.062C53.9915 29.1574 54.0225 29.3875 54.1265 29.3875H55.493C55.6898 30.4908 54.7843 31.2862 54.1719 32.0736C54.1931 33.4588 54.1508 34.8461 54.1695 36.2314C54.2289 40.635 54.1205 45.1303 54.2636 49.5335C54.2707 49.7501 54.5508 50.3783 54.1261 50.2391C54.0512 50.2144 53.4648 49.1031 53.3094 48.8849C52.4261 47.642 51.2776 46.5073 50.0254 45.6425L50.1266 32.2598C50.1071 31.8817 49.6652 31.7006 49.4625 31.4154C49.0545 30.8418 48.931 30.0784 48.9908 29.3875H50.3099C50.3453 29.3875 50.4019 28.7765 50.4079 28.6835C50.4987 27.3377 50.3346 25.8886 50.4019 24.5308C50.3306 24.1531 49.8103 24.1076 49.6923 23.7319C49.5987 23.4335 49.6696 23.0913 49.6501 22.7833H54.6444L54.6449 22.7837ZM52.0764 25.1555C51.7628 25.2157 51.5178 25.5703 51.4636 25.8722C51.3652 26.4215 51.4003 27.7102 51.4417 28.3026C51.4521 28.4526 51.5485 29.2579 51.5764 29.2998C51.6776 29.4533 52.8795 29.5183 52.8524 29.0553C52.7401 28.311 53.0907 25.8694 52.6608 25.384C52.5305 25.2368 52.2744 25.1176 52.0764 25.1555Z" fill="url(#paint7_linear_123_1420)"/>
<path d="M35.0443 43.8224C35.0762 43.9712 34.9989 44.0183 34.9041 44.1056C34.6136 44.3733 33.9304 44.7155 33.5463 45.0107C32.3264 45.9476 31.083 47.0749 30.0962 48.2547C29.8065 48.601 29.5149 49.1829 29.2336 49.4609C29.1376 49.5559 28.9352 49.7078 28.8229 49.5144C28.6938 49.2918 28.6217 48.8794 28.4333 48.6018C27.6245 47.4111 26.348 47.1654 25.4496 48.4143C25.2094 48.7481 25.164 49.0549 24.9831 49.3632C24.9488 49.4218 24.9807 49.5455 24.8222 49.4817C24.6871 49.427 23.68 47.9249 23.4525 47.6449C22.3593 46.3018 21.0071 45.2325 19.5928 44.2464C19.588 44.0314 22.4915 43.2716 22.8712 43.191C26.954 42.3247 31.0468 42.7522 35.0443 43.8224Z" fill="url(#paint8_linear_123_1420)"/>
<path d="M50.4044 52.1713C50.3391 51.774 49.8873 51.4705 49.8407 51.2264C49.6773 50.3712 49.8758 48.7103 49.8431 47.7334C49.8319 47.4016 49.5829 47.0047 49.8861 46.7486C51.3805 48.1251 52.8132 49.6269 53.7538 51.4597C53.9095 51.7629 54.4753 53.3739 54.5637 53.4334C54.637 53.4824 54.9275 53.427 54.9275 53.4449V61.0866H50.4044V52.1713Z" fill="url(#paint9_linear_123_1420)"/>
<path d="M19.4971 23.0669C19.5306 23.1008 19.4975 23.7841 19.4549 23.9209C19.3477 24.2648 18.974 24.3346 18.8843 24.4817C18.619 24.9177 18.9875 28.4693 18.8369 29.2463C18.8592 29.7054 19.9501 29.3736 20.0628 29.4816C20.078 29.4964 20.0771 29.8267 20.06 29.9041C19.9748 30.2953 19.0704 30.8753 18.7859 31.1761C17.517 32.5195 15.7493 35.7045 15.6294 37.5441C15.58 38.302 15.7689 38.7591 15.8254 39.4312C15.8446 39.6566 15.9175 42.3071 15.7737 42.3135C15.5298 42.3246 15.1753 42.1312 14.8792 42.2181L14.8781 32.0775C14.4697 31.3827 13.3713 30.4374 13.6685 29.5423C13.7733 29.2272 14.1637 29.4733 14.3617 29.4645C14.486 29.4589 15.1342 29.4162 15.1629 29.3879C15.3302 29.2252 14.9749 25.2927 15.0669 24.7191C15.0231 24.4694 14.5597 24.2991 14.4514 23.9197C14.3713 23.6381 14.4163 23.3517 14.4083 23.0665H19.4967L19.4971 23.0669ZM17.6123 29.482V25.9444C17.6123 25.7358 17.1593 25.4107 16.9123 25.4263C16.7059 25.4394 16.2932 25.7677 16.2932 25.9444V29.482H17.6123Z" fill="url(#paint10_linear_123_1420)"/>
<path d="M27.2901 48.8522C27.5506 49.0804 27.8462 49.7421 27.8845 50.0955L27.9785 62.6912C27.271 62.6589 26.6056 62.8073 25.9045 62.6912C25.922 58.9019 25.881 55.1094 25.9096 51.3189C25.9136 50.7712 25.814 50.3955 25.9694 49.7832C26.1096 49.2296 26.6694 48.3086 27.2897 48.8526L27.2901 48.8522Z" fill="url(#paint11_linear_123_1420)"/>
<path d="M44.5625 18.0667C44.6509 16.4492 44.8023 14.8334 45.0605 13.2351C45.1346 12.7776 45.7374 9.60452 45.8943 9.49443C45.9951 9.42383 46.5768 9.46252 46.6852 9.57301C46.8545 9.74612 47.1732 11.0413 47.2517 11.3644C47.7672 13.4872 47.9931 15.6842 48.2194 17.8537C48.2556 17.9294 48.1282 18.0667 48.0959 18.0667H44.5625Z" fill="url(#paint12_linear_123_1420)"/>
<path d="M9.60326 18.0667H6.02246C6.03999 16.1397 6.35393 14.1836 6.71129 12.2942C6.78739 11.8925 7.14154 9.81595 7.36066 9.69071C7.46066 9.63367 7.81445 9.65161 7.93715 9.68871C8.28057 9.79282 8.60965 11.3496 8.70925 11.7449C9.22876 13.8055 9.58374 15.9351 9.60326 18.0671V18.0667Z" fill="url(#paint13_linear_123_1420)"/>
<path d="M53.9857 21.7459H50.3578C50.1116 21.7459 50.2997 20.6801 50.3236 20.4851C50.5901 18.2917 51.2491 16.0388 51.6144 13.853C51.6594 13.3496 52.3498 13.2654 52.5486 13.7034C52.7626 14.1753 52.963 15.409 53.0917 15.9897C53.5116 17.8828 53.847 19.8078 53.9857 21.7459Z" fill="url(#paint14_linear_123_1420)"/>
<path d="M18.7432 22.0291H15.0684C15.2528 19.3047 16.0114 16.6626 16.5054 13.9861C16.6516 13.5745 17.3113 13.661 17.4245 14.0567C17.9755 16.6921 18.5559 19.335 18.7436 22.0287L18.7432 22.0291Z" fill="url(#paint15_linear_123_1420)"/>
<path d="M43.2429 49.1993C42.7254 48.794 42.4106 48.1781 41.9724 47.6883C41.0051 46.607 39.8784 45.6581 38.6557 44.8767C38.4709 44.7586 37.4031 44.2245 37.4023 44.1519C37.4015 44.0705 37.6271 44.0107 37.7024 43.9824C38.7752 43.5763 41.5808 42.5935 42.609 42.8053C42.7389 42.832 43.2429 43.1124 43.2429 43.2086V49.1993Z" fill="url(#paint16_linear_123_1420)"/>
<path d="M11.3002 50.143C11.3528 48.1654 11.954 45.9879 13.5161 44.6736C13.7133 44.5077 14.6113 43.9768 14.6464 43.9185C14.8256 43.6202 14.4316 43.0255 15.1874 43.181C15.691 43.5121 17.0479 43.6665 17.4272 44.055C17.524 44.1543 17.5507 44.1515 17.422 44.2444C15.6583 45.1654 14.0484 46.4614 12.809 48.0226C12.2683 48.7038 11.8763 49.51 11.2998 50.143H11.3002Z" fill="url(#paint17_linear_123_1420)"/>
<path d="M30.9928 21.5572C31.2781 21.8201 29.992 22.3985 29.9685 22.4659C29.7813 23.0028 30.555 25.2807 30.155 25.8423C30.0956 25.9257 29.0924 25.9289 29.0271 25.8846C28.8948 25.7949 28.908 25.0099 28.916 24.8081C28.9347 24.3402 29.2857 22.641 29.1917 22.3725C29.1391 22.2225 28.657 22.1172 28.455 21.976C27.4917 21.3023 27.5757 19.4891 28.663 18.9889C29.3582 18.669 28.6697 19.3638 28.5849 19.7599C28.4498 20.3893 28.6897 20.9525 29.2084 21.3163C29.2729 21.3618 29.6024 21.558 29.6263 21.558C29.8331 21.558 30.9422 21.5118 30.9928 21.558V21.5572Z" fill="url(#paint18_linear_123_1420)"/>
<path d="M22.042 38.586C22.1994 37.8584 23.2515 37.7089 23.5706 38.5649C23.7188 38.9617 23.8519 41.6135 23.6969 41.8468C23.638 41.9354 22.4555 41.9908 22.234 41.9908C22.1551 41.9908 22.042 41.9557 22.042 41.8883V38.5864V38.586Z" fill="url(#paint19_linear_123_1420)"/>
<path d="M33.8205 41.935C33.7954 41.9035 33.7301 41.2585 33.7221 41.1368C33.6763 40.416 33.5623 38.1915 34.3814 37.9163C35.6165 37.5015 35.4515 40.2956 35.4268 40.9477C35.4201 41.1256 35.3484 41.272 35.336 41.4256C35.3268 41.5381 35.4993 41.9345 35.2806 41.9345C35.0695 41.9345 33.8655 41.992 33.8201 41.9345L33.8205 41.935Z" fill="url(#paint20_linear_123_1420)"/>
<path d="M27.7891 41.5576V38.586C27.7891 37.9565 29.0257 37.3578 29.4137 38.28C29.4954 38.4739 29.5683 39.3438 29.5834 39.6195C29.6054 40.0251 29.6444 40.9661 29.5795 41.3219C29.5651 41.4004 29.5038 41.5576 29.438 41.5576H27.7891Z" fill="url(#paint21_linear_123_1420)"/>
<path d="M40.699 42.0295C40.4735 41.9282 39.3799 42.2596 39.3799 41.9824V39.0579C39.3799 38.9908 39.9874 38.2015 40.1054 38.1716C40.3619 38.1065 40.699 38.5971 40.699 38.7746V42.0295Z" fill="url(#paint22_linear_123_1420)"/>
<path d="M18.272 42.3127C18.2285 42.3562 17.0469 42.3741 17.0469 42.3127V39.2465C17.0469 39.095 17.4269 38.3455 17.6592 38.3467C17.8552 38.3475 18.272 38.9378 18.272 39.0579C18.272 39.5006 18.3871 42.1974 18.272 42.3127Z" fill="url(#paint23_linear_123_1420)"/>
<path d="M32.5004 39.2936V41.6992C32.5004 41.9601 31.9255 41.7511 31.7932 41.7463C31.4952 41.7359 31.1956 41.7523 30.8984 41.7463V39.2932H32.5004V39.2936Z" fill="url(#paint24_linear_123_1420)"/>
<path d="M26.5649 41.5576C26.4613 41.6792 25.2135 41.6489 24.9629 41.6521V39.3406C24.9629 39.1261 26.5649 39.1261 26.5649 39.3406C26.5649 39.6498 26.6366 41.4734 26.5649 41.5576Z" fill="url(#paint25_linear_123_1420)"/>
<path d="M38.1544 42.124H36.7879C36.4739 42.124 36.7317 40.7128 36.7444 40.4775C36.7552 40.2732 36.6616 39.6111 36.6879 39.5744C36.805 39.4105 38.1544 39.4264 38.1544 39.6239V42.124Z" fill="url(#paint26_linear_123_1420)"/>
<path d="M19.4971 39.8126C19.574 39.5625 20.3947 39.7065 20.6281 39.6706C20.5839 40.1624 20.8999 41.8951 20.6807 42.2242C20.5576 42.4096 19.7537 42.2712 19.4967 42.3123C19.6166 41.6881 19.3353 40.3375 19.4967 39.8122L19.4971 39.8126Z" fill="url(#paint27_linear_123_1420)"/>
<path d="M7.34228 7.45341C7.36143 7.38281 7.57285 7.21488 7.67297 7.21409C8.15321 7.2097 8.20425 8.6987 8.05587 8.92167C7.9382 9.09838 7.34228 9.0202 7.34228 8.86863C7.34228 8.53277 7.27527 7.70191 7.34228 7.45341Z" fill="url(#paint28_linear_123_1420)"/>
<path d="M46.6234 8.71305C46.5149 8.87181 45.9932 8.87779 45.901 8.56667C45.8519 8.40113 45.9173 7.20491 45.9768 7.12314C45.9963 7.09642 46.4642 7.07169 46.5288 7.27831C46.5791 7.43825 46.684 8.62411 46.6234 8.71346V8.71305Z" fill="url(#paint29_linear_123_1420)"/>
<path d="M51.8306 11.1924C51.892 11.151 52.1489 11.1637 52.2306 11.1924C52.4891 11.2822 52.6247 12.6731 52.3247 12.7736C51.4329 13.0723 51.7101 11.2734 51.8301 11.1928L51.8306 11.1924Z" fill="url(#paint30_linear_123_1420)"/>
<path d="M16.7299 11.5682C17.3801 11.3524 17.4124 12.3955 17.3314 12.8314C17.2648 13.1896 16.6641 13.1398 16.5895 12.9124C16.5249 12.7154 16.5149 11.64 16.7299 11.5686V11.5682Z" fill="url(#paint31_linear_123_1420)"/>
</g>
<defs>
<linearGradient id="paint0_linear_123_1420" x1="1.0466" y1="64.0765" x2="68.7037" y2="16.7593" gradientUnits="userSpaceOnUse">
<stop stop-color="#00C2F2"/>
<stop offset="0.999" stop-color="#54E4FC" stop-opacity="0.2"/>
</linearGradient>
<linearGradient id="paint1_linear_123_1420" x1="49.972" y1="84.5841" x2="29.9906" y2="44.304" gradientUnits="userSpaceOnUse">
<stop stop-color="#0966C4"/>
<stop offset="1" stop-color="#2F8CF3"/>
</linearGradient>
<linearGradient id="paint2_linear_123_1420" x1="36.5711" y1="43.2906" x2="24.184" y2="26.8949" gradientUnits="userSpaceOnUse">
<stop stop-color="#0966C4"/>
<stop offset="1" stop-color="#2F8CF3"/>
</linearGradient>
<linearGradient id="paint3_linear_123_1420" x1="39.9984" y1="69.4484" x2="24.7326" y2="61.8347" gradientUnits="userSpaceOnUse">
<stop stop-color="#0966C4"/>
<stop offset="1" stop-color="#2F8CF3"/>
</linearGradient>
<linearGradient id="paint4_linear_123_1420" x1="9.78199" y1="62.9144" x2="0.380712" y2="61.5772" gradientUnits="userSpaceOnUse">
<stop stop-color="#0966C4"/>
<stop offset="1" stop-color="#2F8CF3"/>
</linearGradient>
<linearGradient id="paint5_linear_123_1420" x1="48.127" y1="62.8447" x2="39.047" y2="61.6017" gradientUnits="userSpaceOnUse">
<stop stop-color="#0966C4"/>
<stop offset="1" stop-color="#2F8CF3"/>
</linearGradient>
<linearGradient id="paint6_linear_123_1420" x1="21.7716" y1="69.4898" x2="7.08224" y2="62.5403" gradientUnits="userSpaceOnUse">
<stop stop-color="#0966C4"/>
<stop offset="1" stop-color="#2F8CF3"/>
</linearGradient>
<linearGradient id="paint7_linear_123_1420" x1="54.0285" y1="60.5624" x2="45.3841" y2="59.2506" gradientUnits="userSpaceOnUse">
<stop stop-color="#0966C4"/>
<stop offset="1" stop-color="#2F8CF3"/>
</linearGradient>
<linearGradient id="paint8_linear_123_1420" x1="31.527" y1="52.1878" x2="24.6767" y2="42.3805" gradientUnits="userSpaceOnUse">
<stop stop-color="#0966C4"/>
<stop offset="1" stop-color="#2F8CF3"/>
</linearGradient>
<linearGradient id="paint9_linear_123_1420" x1="53.7439" y1="66.4633" x2="47.0831" y2="64.9268" gradientUnits="userSpaceOnUse">
<stop stop-color="#0966C4"/>
<stop offset="1" stop-color="#2F8CF3"/>
</linearGradient>
<linearGradient id="paint10_linear_123_1420" x1="18.6017" y1="49.5317" x2="10.259" y2="47.7489" gradientUnits="userSpaceOnUse">
<stop stop-color="#0966C4"/>
<stop offset="1" stop-color="#2F8CF3"/>
</linearGradient>
<linearGradient id="paint11_linear_123_1420" x1="27.5005" y1="68.005" x2="24.6924" y2="67.738" gradientUnits="userSpaceOnUse">
<stop stop-color="#0966C4"/>
<stop offset="1" stop-color="#2F8CF3"/>
</linearGradient>
<linearGradient id="paint12_linear_123_1420" x1="47.3906" y1="21.2946" x2="42.7791" y2="20.0441" gradientUnits="userSpaceOnUse">
<stop stop-color="#0966C4"/>
<stop offset="1" stop-color="#2F8CF3"/>
</linearGradient>
<linearGradient id="paint13_linear_123_1420" x1="8.78684" y1="21.2219" x2="4.27929" y2="19.9995" gradientUnits="userSpaceOnUse">
<stop stop-color="#0966C4"/>
<stop offset="1" stop-color="#2F8CF3"/>
</linearGradient>
<linearGradient id="paint14_linear_123_1420" x1="53.1299" y1="24.8682" x2="48.4444" y2="23.5224" gradientUnits="userSpaceOnUse">
<stop stop-color="#0966C4"/>
<stop offset="1" stop-color="#2F8CF3"/>
</linearGradient>
<linearGradient id="paint15_linear_123_1420" x1="17.9056" y1="25.1465" x2="13.3041" y2="23.8503" gradientUnits="userSpaceOnUse">
<stop stop-color="#0966C4"/>
<stop offset="1" stop-color="#2F8CF3"/>
</linearGradient>
<linearGradient id="paint16_linear_123_1420" x1="41.9112" y1="51.6081" x2="36.0018" y2="48.1845" gradientUnits="userSpaceOnUse">
<stop stop-color="#0966C4"/>
<stop offset="1" stop-color="#2F8CF3"/>
</linearGradient>
<linearGradient id="paint17_linear_123_1420" x1="16.0936" y1="52.7633" x2="9.73931" y2="49.1653" gradientUnits="userSpaceOnUse">
<stop stop-color="#0966C4"/>
<stop offset="1" stop-color="#2F8CF3"/>
</linearGradient>
<linearGradient id="paint18_linear_123_1420" x1="30.2936" y1="28.5401" x2="26.2566" y2="27.3476" gradientUnits="userSpaceOnUse">
<stop stop-color="#0966C4"/>
<stop offset="1" stop-color="#2F8CF3"/>
</linearGradient>
<linearGradient id="paint19_linear_123_1420" x1="23.3731" y1="43.4949" x2="21.2056" y2="42.9012" gradientUnits="userSpaceOnUse">
<stop stop-color="#0966C4"/>
<stop offset="1" stop-color="#2F8CF3"/>
</linearGradient>
<linearGradient id="paint20_linear_123_1420" x1="35.0467" y1="43.4922" x2="32.8369" y2="42.8863" gradientUnits="userSpaceOnUse">
<stop stop-color="#0966C4"/>
<stop offset="1" stop-color="#2F8CF3"/>
</linearGradient>
<linearGradient id="paint21_linear_123_1420" x1="29.1989" y1="42.9646" x2="26.9475" y2="42.2664" gradientUnits="userSpaceOnUse">
<stop stop-color="#0966C4"/>
<stop offset="1" stop-color="#2F8CF3"/>
</linearGradient>
<linearGradient id="paint22_linear_123_1420" x1="40.3982" y1="43.5695" x2="38.6936" y2="43.205" gradientUnits="userSpaceOnUse">
<stop stop-color="#0966C4"/>
<stop offset="1" stop-color="#2F8CF3"/>
</linearGradient>
<linearGradient id="paint23_linear_123_1420" x1="18.0321" y1="43.8544" x2="16.3757" y2="43.5182" gradientUnits="userSpaceOnUse">
<stop stop-color="#0966C4"/>
<stop offset="1" stop-color="#2F8CF3"/>
</linearGradient>
<linearGradient id="paint24_linear_123_1420" x1="32.1352" y1="42.7814" x2="30.2719" y2="42.0317" gradientUnits="userSpaceOnUse">
<stop stop-color="#0966C4"/>
<stop offset="1" stop-color="#2F8CF3"/>
</linearGradient>
<linearGradient id="paint25_linear_123_1420" x1="26.2242" y1="42.5809" x2="24.3485" y2="41.7915" gradientUnits="userSpaceOnUse">
<stop stop-color="#0966C4"/>
<stop offset="1" stop-color="#2F8CF3"/>
</linearGradient>
<linearGradient id="paint26_linear_123_1420" x1="37.8075" y1="43.1221" x2="35.9921" y2="42.4608" gradientUnits="userSpaceOnUse">
<stop stop-color="#0966C4"/>
<stop offset="1" stop-color="#2F8CF3"/>
</linearGradient>
<linearGradient id="paint27_linear_123_1420" x1="20.4594" y1="43.3223" x2="18.8439" y2="42.8144" gradientUnits="userSpaceOnUse">
<stop stop-color="#0966C4"/>
<stop offset="1" stop-color="#2F8CF3"/>
</linearGradient>
<linearGradient id="paint28_linear_123_1420" x1="7.94326" y1="9.70135" x2="6.92356" y2="9.40789" gradientUnits="userSpaceOnUse">
<stop stop-color="#0966C4"/>
<stop offset="1" stop-color="#2F8CF3"/>
</linearGradient>
<linearGradient id="paint29_linear_123_1420" x1="46.4689" y1="9.463" x2="45.5199" y2="9.19571" gradientUnits="userSpaceOnUse">
<stop stop-color="#0966C4"/>
<stop offset="1" stop-color="#2F8CF3"/>
</linearGradient>
<linearGradient id="paint30_linear_123_1420" x1="52.3127" y1="13.4224" x2="51.3244" y2="13.1146" gradientUnits="userSpaceOnUse">
<stop stop-color="#0966C4"/>
<stop offset="1" stop-color="#2F8CF3"/>
</linearGradient>
<linearGradient id="paint31_linear_123_1420" x1="17.1775" y1="13.6739" x2="16.1876" y2="13.343" gradientUnits="userSpaceOnUse">
<stop stop-color="#0966C4"/>
<stop offset="1" stop-color="#2F8CF3"/>
</linearGradient>
</defs>
</svg>
